<?xml version="1.0" encoding="UTF-8" standalone="no"?>
<svg
   xmlns:dc="http://purl.org/dc/elements/1.1/"
   xmlns:cc="http://creativecommons.org/ns#"
   xmlns:rdf="http://www.w3.org/1999/02/22-rdf-syntax-ns#"
   xmlns:svg="http://www.w3.org/2000/svg"
   xmlns="http://www.w3.org/2000/svg"
   viewBox="0 0 255.16251 264.35001"
   height="264.35001"
   width="255.16251"
   xml:space="preserve"
   version="1.1"
   id="svg2"><metadata
     id="metadata8"><rdf:RDF><cc:Work
         rdf:about=""><dc:format>image/svg+xml</dc:format><dc:type
           rdf:resource="http://purl.org/dc/dcmitype/StillImage" /><dc:title></dc:title></cc:Work></rdf:RDF></metadata><defs
     id="defs6" /><g
     transform="matrix(1.25,0,0,-1.25,0,264.35)"
     id="g10"><g
       transform="scale(0.1,0.1)"
       id="g12"><path
         id="path14"
         style="fill:#f36f16;fill-opacity:1;fill-rule:nonzero;stroke:none"
         d="m 260.984,905.711 c 0,-431.5 345.223,-786.52 788.866,-832.2696 l 0,290.4566 c -274.799,44.071 -483.912,269.543 -484.475,541.813 0.563,272.249 209.676,497.819 484.475,541.849 l 0,290.5 C 606.207,1692.18 261.063,1337.24 260.984,905.711" /><path
         id="path16"
         style="fill:#f36f16;fill-opacity:1;fill-rule:nonzero;stroke:none"
         d="m 709.863,908.891 c 0,-197.121 146.297,-362.243 343.647,-408.469 l 0,816.938 C 856.16,1271.14 709.863,1106.06 709.863,908.891" /><path
         id="path18"
         style="fill:#f36f16;fill-opacity:1;fill-rule:nonzero;stroke:none"
         d="m 748.035,2114.83 1.395,-202.42 C 349.336,1773.27 53.4609,1430.82 2.73828,1017.01 L 0,994.961 l 133.66,0 2.309,17.319 c 60.746,449.24 447.246,801.35 928.931,838.53 l 19.35,1.55 -336.215,262.47" /><path
         id="path20"
         style="fill:#393536;fill-opacity:1;fill-rule:nonzero;stroke:none"
         d="m 1395.52,1123.39 c 0,-51.43 -41.66,-93.14 -93.14,-93.14 -51.42,0 -93.17,41.71 -93.17,93.14 0,51.46 41.75,93.19 93.17,93.19 51.48,0 93.14,-41.73 93.14,-93.19" /><path
         id="path22"
         style="fill:#f36f16;fill-opacity:1;fill-rule:nonzero;stroke:none"
         d="m 1529.56,476.52 49.41,-72.372 c 118.33,73.59 206.07,171.122 264.08,280.274 l -90.08,18.258 C 1701.77,615.23 1627.9,537.191 1529.56,476.52 Z m 338.86,848.67 -95.9,0 c 44.87,-92.73 68.09,-194.02 68.42,-295.5 0,-11.12 -0.48,-22.22 -1.06,-33.311 l 80.2,-75.578 c 5.3,36.097 8.22,72.5 8.14,108.889 0.34,100.55 -20.33,201.15 -59.8,295.5" /><path
         id="path24"
         style="fill:#f36f16;fill-opacity:1;fill-rule:nonzero;stroke:none"
         d="m 1663.19,790.07 378.12,-76.73 -321,302.64 c 0.23,6.25 0.73,12.42 0.73,18.71 0,284.04 -218.31,520.69 -508.02,574.72 l 0,-127.07 c 215.24,-51.78 373.82,-232.3 374.38,-447.49 -0.56,-215.42 -159.14,-395.901 -374.38,-447.709 l 0,-127.129 C 1214.79,460.289 1537.38,0 1537.38,0 l 164.55,0 -353.76,500.422 c 139.05,58.219 251.25,161.488 315.02,289.648" /></g></g></svg>